<svg width="1420" height="1710" viewBox="0 0 1420 1710" fill="none" xmlns="http://www.w3.org/2000/svg">
<path opacity="0.45" fill-rule="evenodd" clip-rule="evenodd" d="M1380.59 254.592C1454.66 338.89 1552.13 401.247 1573 524.441C1595.41 656.771 1551.88 808.411 1499.86 958.87C1434.31 1148.47 1391.81 1361.05 1234.06 1504.7C1070.27 1653.85 864.851 1685.87 682.192 1703.44C497.114 1721.24 316.454 1706.7 194.281 1604.72C70.7872 1501.63 -34.0963 1343.24 10.4735 1142.71C53.6289 948.554 281.545 813.717 409.813 635.016C506.52 500.284 544.282 338.631 667.204 227.763C801.733 106.426 969.308 -4.56821 1112.95 0.833605C1253.76 6.1293 1297.09 159.556 1380.59 254.592Z" fill="url(#paint0_linear_118_401)"/>
<defs>
<linearGradient id="paint0_linear_118_401" x1="1476.68" y1="267.791" x2="254.896" y2="1658.28" gradientUnits="userSpaceOnUse">
<stop stop-color="#DEE8F5"/>
<stop offset="1" stop-color="#8DDBE0"/>
</linearGradient>
</defs>
</svg>
