<svg width="1492" height="1376" viewBox="0 0 1492 1376" fill="none" xmlns="http://www.w3.org/2000/svg">
<path fill-rule="evenodd" clip-rule="evenodd" d="M5.76902 456.513C21.3094 346.141 23.301 227.876 113.285 155.004C222.369 66.6622 368.566 -37.2072 552.868 13.4481C739.501 64.7442 797.501 267.009 946.626 384.048C1085.93 493.38 1297.58 539.749 1390.52 670.869C1491.32 813.068 1526.25 982.667 1452.54 1097.76C1380.63 1210.02 1171.84 1202.05 1020.3 1248.89C876.316 1293.4 763.685 1410.68 588.228 1364.9C412.631 1319.09 302.952 1159.18 192.155 1032.83C108.006 936.872 65.906 835.023 32.2086 730.828C1.24536 635.088 -6.74125 545.364 5.76902 456.513Z" fill="url(#paint0_linear_190_3)"/>
<defs>
<linearGradient id="paint0_linear_190_3" x1="-796" y1="300" x2="988.5" y2="865" gradientUnits="userSpaceOnUse">
<stop stop-color="#D585B9" stop-opacity="0.26"/>
<stop offset="1" stop-color="#DEE8F5" stop-opacity="0.5"/>
</linearGradient>
</defs>
</svg>
