<svg width="360" height="360" viewBox="0 0 480 480" fill="none" xmlns="http://www.w3.org/2000/svg">
                <path d="M57.8438 158.812L153 419.438C86.4375 387.188 40.5938 318.938 40.5938 240C40.5938 211.031 46.7812 183.656 57.8438 158.812ZM374.625 229.969C374.625 205.312 365.812 188.25 358.219 174.938C348.094 158.531 338.625 144.562 338.625 128.156C338.625 109.781 352.5 92.7188 372.094 92.7188C372.938 92.7188 373.781 92.8125 374.719 92.9062C339.188 60.375 291.938 40.5 240 40.5C170.344 40.5 109.031 76.2188 73.3125 130.406C78 130.594 82.4062 130.687 86.1562 130.687C106.969 130.687 139.312 128.156 139.312 128.156C150.094 127.5 151.312 143.344 140.625 144.562C140.625 144.562 129.844 145.781 117.844 146.438L190.5 362.438L234.188 231.562L203.156 146.438C192.375 145.781 182.25 144.562 182.25 144.562C171.469 143.906 172.781 127.5 183.469 128.156C183.469 128.156 216.375 130.687 235.969 130.687C256.781 130.687 289.125 128.156 289.125 128.156C299.906 127.5 301.125 143.344 290.438 144.562C290.438 144.562 279.656 145.781 267.656 146.438L339.75 360.844L359.625 294.375C368.062 266.812 374.625 247.031 374.625 229.969ZM243.469 257.438L183.656 431.344C201.562 436.594 220.406 439.5 240 439.5C263.25 439.5 285.469 435.469 306.188 428.156C305.625 427.312 305.156 426.375 304.781 425.438L243.469 257.438ZM415.031 144.281C415.875 150.656 416.344 157.406 416.344 164.812C416.344 185.062 412.594 207.75 401.156 236.25L340.219 412.406C399.562 377.812 439.406 313.594 439.406 240C439.406 205.312 430.594 172.688 415.031 144.281ZM472.5 240C472.5 368.25 368.156 472.5 240 472.5C111.75 472.5 7.5 368.156 7.5 240C7.5 111.75 111.75 7.5 240 7.5C368.156 7.5 472.5 111.75 472.5 240ZM461.812 240C461.812 117.656 362.25 18.1875 240 18.1875C117.656 18.1875 18.1875 117.656 18.1875 240C18.1875 362.344 117.75 461.812 240 461.812C362.344 461.812 461.812 362.344 461.812 240Z" fill="#C1D8ED"/>
            </svg>